# xmcd CD database file
#
# Track frame offsets:
#	150
#	7427
#	26885
#	45250
#	64395
#	88142
#	110907
#	131622
#	147875
#	165992
#	185472
#	207882
#
# Disc length: 3062 seconds
#
# Revision: 0
# Processed by: cddbd v1.5.1PL0 Copyright (c) Steve Scherf et al.
# Submitted via: CDex 1.51
#
DISCID=af0bf40c
DTITLE=つばき - あの日の空に踵を鳴らせ
DYEAR=2004
DGENRE=Vocal
TTITLE0=踵
TTITLE1=青
TTITLE2=雨音
TTITLE3=夜風に乗せて
TTITLE4=アセロラ
TTITLE5=新しい世界
TTITLE6=曖昧な夜
TTITLE7=君のヒゲ
TTITLE8=悲しい鳥
TTITLE9=猫
TTITLE10=夕暮れ
TTITLE11=サヨナラ
EXTD=YEAR: 2004
EXTT0=
EXTT1=
EXTT2=
EXTT3=
EXTT4=
EXTT5=
EXTT6=
EXTT7=
EXTT8=
EXTT9=
EXTT10=
EXTT11=
PLAYORDER=
